<mxfile host="app.diagrams.net" modified="2021-09-03T12:01:56.436Z" agent="5.0 (X11; Linux x86_64) AppleWebKit/537.36 (KHTML, like Gecko) Chrome/89.0.4389.90 Safari/537.36" etag="dZzg7aY5I9Vjo1xCkmJ9" version="14.6.13" type="github">
  <diagram id="C5RBs43oDa-KdzZeNtuy" name="Page-1">
    <mxGraphModel dx="1185" dy="645" grid="1" gridSize="10" guides="1" tooltips="1" connect="1" arrows="1" fold="1" page="1" pageScale="1" pageWidth="827" pageHeight="1169" math="0" shadow="0">
      <root>
        <mxCell id="WIyWlLk6GJQsqaUBKTNV-0" />
        <mxCell id="WIyWlLk6GJQsqaUBKTNV-1" parent="WIyWlLk6GJQsqaUBKTNV-0" />
        <mxCell id="B5yD6hekEhZLcy7rSz4W-7" style="edgeStyle=orthogonalEdgeStyle;rounded=0;orthogonalLoop=1;jettySize=auto;html=1;entryX=0;entryY=0.5;entryDx=0;entryDy=0;" edge="1" parent="WIyWlLk6GJQsqaUBKTNV-1" source="B5yD6hekEhZLcy7rSz4W-0" target="B5yD6hekEhZLcy7rSz4W-2">
          <mxGeometry relative="1" as="geometry" />
        </mxCell>
        <mxCell id="B5yD6hekEhZLcy7rSz4W-0" value="Actor" style="shape=umlActor;verticalLabelPosition=bottom;verticalAlign=top;html=1;outlineConnect=0;" vertex="1" parent="WIyWlLk6GJQsqaUBKTNV-1">
          <mxGeometry x="40" y="300" width="30" height="60" as="geometry" />
        </mxCell>
        <mxCell id="B5yD6hekEhZLcy7rSz4W-11" style="edgeStyle=orthogonalEdgeStyle;rounded=0;orthogonalLoop=1;jettySize=auto;html=1;exitX=1;exitY=0.5;exitDx=0;exitDy=0;entryX=0;entryY=0.5;entryDx=0;entryDy=0;" edge="1" parent="WIyWlLk6GJQsqaUBKTNV-1" source="B5yD6hekEhZLcy7rSz4W-2" target="B5yD6hekEhZLcy7rSz4W-9">
          <mxGeometry relative="1" as="geometry" />
        </mxCell>
        <mxCell id="B5yD6hekEhZLcy7rSz4W-2" value="" style="rounded=1;whiteSpace=wrap;html=1;" vertex="1" parent="WIyWlLk6GJQsqaUBKTNV-1">
          <mxGeometry x="150" y="150" width="110" height="150" as="geometry" />
        </mxCell>
        <mxCell id="B5yD6hekEhZLcy7rSz4W-3" value="Input Processor" style="text;html=1;strokeColor=none;fillColor=none;align=center;verticalAlign=middle;whiteSpace=wrap;rounded=0;" vertex="1" parent="WIyWlLk6GJQsqaUBKTNV-1">
          <mxGeometry x="185" y="160" width="40" height="20" as="geometry" />
        </mxCell>
        <mxCell id="B5yD6hekEhZLcy7rSz4W-15" style="edgeStyle=orthogonalEdgeStyle;rounded=0;orthogonalLoop=1;jettySize=auto;html=1;entryX=0.5;entryY=0;entryDx=0;entryDy=0;" edge="1" parent="WIyWlLk6GJQsqaUBKTNV-1" source="B5yD6hekEhZLcy7rSz4W-4" target="B5yD6hekEhZLcy7rSz4W-14">
          <mxGeometry relative="1" as="geometry" />
        </mxCell>
        <mxCell id="B5yD6hekEhZLcy7rSz4W-4" value="" style="rounded=1;whiteSpace=wrap;html=1;" vertex="1" parent="WIyWlLk6GJQsqaUBKTNV-1">
          <mxGeometry x="425" y="145" width="110" height="160" as="geometry" />
        </mxCell>
        <mxCell id="B5yD6hekEhZLcy7rSz4W-5" value="Analyzer Controller" style="text;html=1;strokeColor=none;fillColor=none;align=center;verticalAlign=middle;whiteSpace=wrap;rounded=0;" vertex="1" parent="WIyWlLk6GJQsqaUBKTNV-1">
          <mxGeometry x="460" y="160" width="40" height="20" as="geometry" />
        </mxCell>
        <mxCell id="B5yD6hekEhZLcy7rSz4W-8" value="CLI input" style="text;html=1;strokeColor=none;fillColor=none;align=center;verticalAlign=middle;whiteSpace=wrap;rounded=0;rotation=-90;" vertex="1" parent="WIyWlLk6GJQsqaUBKTNV-1">
          <mxGeometry x="70" y="240" width="40" height="20" as="geometry" />
        </mxCell>
        <mxCell id="B5yD6hekEhZLcy7rSz4W-12" style="edgeStyle=orthogonalEdgeStyle;rounded=0;orthogonalLoop=1;jettySize=auto;html=1;exitX=1;exitY=0.5;exitDx=0;exitDy=0;entryX=0;entryY=0.5;entryDx=0;entryDy=0;" edge="1" parent="WIyWlLk6GJQsqaUBKTNV-1" source="B5yD6hekEhZLcy7rSz4W-9" target="B5yD6hekEhZLcy7rSz4W-10">
          <mxGeometry relative="1" as="geometry" />
        </mxCell>
        <mxCell id="B5yD6hekEhZLcy7rSz4W-9" value="Input Message" style="rounded=1;whiteSpace=wrap;html=1;" vertex="1" parent="WIyWlLk6GJQsqaUBKTNV-1">
          <mxGeometry x="280" y="205" width="50" height="40" as="geometry" />
        </mxCell>
        <mxCell id="B5yD6hekEhZLcy7rSz4W-13" style="edgeStyle=orthogonalEdgeStyle;rounded=0;orthogonalLoop=1;jettySize=auto;html=1;exitX=1;exitY=0.5;exitDx=0;exitDy=0;entryX=0;entryY=0.5;entryDx=0;entryDy=0;" edge="1" parent="WIyWlLk6GJQsqaUBKTNV-1" source="B5yD6hekEhZLcy7rSz4W-10" target="B5yD6hekEhZLcy7rSz4W-4">
          <mxGeometry relative="1" as="geometry" />
        </mxCell>
        <mxCell id="B5yD6hekEhZLcy7rSz4W-10" value="Input Message" style="rounded=1;whiteSpace=wrap;html=1;" vertex="1" parent="WIyWlLk6GJQsqaUBKTNV-1">
          <mxGeometry x="350" y="205" width="50" height="40" as="geometry" />
        </mxCell>
        <mxCell id="B5yD6hekEhZLcy7rSz4W-30" style="edgeStyle=orthogonalEdgeStyle;rounded=0;orthogonalLoop=1;jettySize=auto;html=1;entryX=0.583;entryY=0;entryDx=0;entryDy=0;entryPerimeter=0;" edge="1" parent="WIyWlLk6GJQsqaUBKTNV-1" source="B5yD6hekEhZLcy7rSz4W-14" target="B5yD6hekEhZLcy7rSz4W-27">
          <mxGeometry relative="1" as="geometry" />
        </mxCell>
        <mxCell id="B5yD6hekEhZLcy7rSz4W-14" value="" style="rounded=1;whiteSpace=wrap;html=1;" vertex="1" parent="WIyWlLk6GJQsqaUBKTNV-1">
          <mxGeometry x="550" y="320" width="180" height="140" as="geometry" />
        </mxCell>
        <mxCell id="B5yD6hekEhZLcy7rSz4W-16" value="Virtual Project Processor" style="text;html=1;strokeColor=none;fillColor=none;align=center;verticalAlign=middle;whiteSpace=wrap;rounded=0;" vertex="1" parent="WIyWlLk6GJQsqaUBKTNV-1">
          <mxGeometry x="620" y="350" width="40" height="20" as="geometry" />
        </mxCell>
        <mxCell id="B5yD6hekEhZLcy7rSz4W-32" style="edgeStyle=orthogonalEdgeStyle;rounded=0;orthogonalLoop=1;jettySize=auto;html=1;exitX=0.5;exitY=1;exitDx=0;exitDy=0;" edge="1" parent="WIyWlLk6GJQsqaUBKTNV-1" source="B5yD6hekEhZLcy7rSz4W-27">
          <mxGeometry relative="1" as="geometry">
            <mxPoint x="80" y="350" as="targetPoint" />
          </mxGeometry>
        </mxCell>
        <mxCell id="B5yD6hekEhZLcy7rSz4W-27" value="" style="shape=offPageConnector;whiteSpace=wrap;html=1;rotation=90;" vertex="1" parent="WIyWlLk6GJQsqaUBKTNV-1">
          <mxGeometry x="350" y="340" width="80" height="80" as="geometry" />
        </mxCell>
        <mxCell id="B5yD6hekEhZLcy7rSz4W-31" value="Presenter" style="text;html=1;strokeColor=none;fillColor=none;align=center;verticalAlign=middle;whiteSpace=wrap;rounded=0;" vertex="1" parent="WIyWlLk6GJQsqaUBKTNV-1">
          <mxGeometry x="374" y="370" width="40" height="20" as="geometry" />
        </mxCell>
        <mxCell id="B5yD6hekEhZLcy7rSz4W-33" value="CLI messages" style="text;html=1;strokeColor=none;fillColor=none;align=center;verticalAlign=middle;whiteSpace=wrap;rounded=0;" vertex="1" parent="WIyWlLk6GJQsqaUBKTNV-1">
          <mxGeometry x="145" y="360" width="40" height="20" as="geometry" />
        </mxCell>
      </root>
    </mxGraphModel>
  </diagram>
</mxfile>
